<svg width="15" height="26" viewBox="0 0 15 26" fill="none" xmlns="http://www.w3.org/2000/svg">
<path d="M14.0757 24.9325C14.4272 24.5809 14.6246 24.1041 14.6246 23.6069C14.6246 23.1097 14.4272 22.6329 14.0757 22.2813L4.7944 13L14.0757 3.71875C14.4172 3.36512 14.6062 2.89149 14.6019 2.39987C14.5976 1.90825 14.4005 1.43798 14.0528 1.09034C13.7052 0.742699 13.2349 0.545507 12.7433 0.541237C12.2517 0.536964 11.778 0.725954 11.4244 1.0675L0.817529 11.6744C0.466021 12.026 0.268555 12.5028 0.268555 13C0.268555 13.4972 0.466021 13.974 0.817529 14.3256L11.4244 24.9325C11.776 25.284 12.2528 25.4815 12.75 25.4815C13.2472 25.4815 13.724 25.284 14.0757 24.9325Z" fill="#F2785C" fill-opacity="0.5"/>
</svg>
