<svg width="30" height="30" viewBox="0 0 30 30" fill="none" xmlns="http://www.w3.org/2000/svg">
<path d="M9.92435 3.0675C9.57284 3.41911 9.37537 3.89594 9.37537 4.39312C9.37537 4.89031 9.57284 5.36713 9.92435 5.71875L19.2056 15L9.92435 24.2812C9.5828 24.6349 9.39381 25.1085 9.39808 25.6001C9.40235 26.0917 9.59955 26.562 9.94719 26.9097C10.2948 27.2573 10.7651 27.4545 11.2567 27.4588C11.7483 27.463 12.222 27.274 12.5756 26.9325L23.1825 16.3256C23.534 15.974 23.7314 15.4972 23.7314 15C23.7314 14.5028 23.534 14.026 23.1825 13.6744L12.5756 3.0675C12.224 2.71599 11.7472 2.51852 11.25 2.51852C10.7528 2.51852 10.276 2.71599 9.92435 3.0675Z" fill="#F2785C"/>
</svg>
