<svg width="34" height="34" viewBox="0 0 34 34" fill="none" xmlns="http://www.w3.org/2000/svg">
<g clip-path="url(#clip0_72_17)">
<path d="M33.4612 6.92278C32.2904 7.44162 31.0325 7.79218 29.7102 7.95063C31.0746 7.13423 32.0954 5.84932 32.582 4.33564C31.3002 5.09704 29.8972 5.63299 28.4342 5.92018C27.4503 4.86971 26.1472 4.17344 24.7271 3.93947C23.307 3.7055 21.8494 3.94692 20.5805 4.62626C19.3117 5.30559 18.3026 6.38483 17.71 7.69641C17.1174 9.00799 16.9744 10.4785 17.3031 11.8797C14.7057 11.7493 12.1648 11.0742 9.84517 9.89822C7.52557 8.72223 5.47916 7.07165 3.83875 5.05359C3.27785 6.02114 2.95533 7.14294 2.95533 8.33765C2.95471 9.41317 3.21956 10.4722 3.7264 11.4208C4.23324 12.3694 4.96638 13.1783 5.86079 13.7756C4.82351 13.7426 3.80912 13.4623 2.90205 12.9581V13.0422C2.90194 14.5506 3.42373 16.0127 4.37887 17.1802C5.33401 18.3478 6.66368 19.1489 8.14225 19.4477C7.18 19.7081 6.17116 19.7464 5.19192 19.5598C5.60908 20.8578 6.42168 21.9928 7.51596 22.8059C8.61023 23.6191 9.9314 24.0697 11.2945 24.0947C8.98056 25.9112 6.12285 26.8965 3.1811 26.8922C2.65999 26.8923 2.13933 26.8619 1.6218 26.801C4.60785 28.721 8.08383 29.7399 11.6338 29.7359C23.6511 29.7359 30.2206 19.7828 30.2206 11.1506C30.2206 10.8701 30.2136 10.5869 30.201 10.3064C31.4789 9.38229 32.5819 8.23795 33.4584 6.92699L33.4612 6.92278Z" fill="#F8F8F8"/>
</g>
<defs>
<clipPath id="clip0_72_17">
<rect width="33.6539" height="33.6539" fill="white" transform="translate(0.307892)"/>
</clipPath>
</defs>
</svg>
