<svg width="30" height="30" viewBox="0 0 30 30" fill="none" xmlns="http://www.w3.org/2000/svg">
<path d="M16.1751 15L22.2501 8.925C22.3866 8.76559 22.4579 8.56052 22.4498 8.35079C22.4417 8.14106 22.3548 7.94211 22.2064 7.7937C22.0579 7.64529 21.859 7.55835 21.6493 7.55024C21.4395 7.54214 21.2345 7.61348 21.0751 7.75L15.0001 13.825L8.92506 7.74167C8.76564 7.60515 8.56058 7.53381 8.35085 7.54191C8.14112 7.55001 7.94217 7.63696 7.79376 7.78537C7.64534 7.93378 7.5584 8.13273 7.5503 8.34246C7.5422 8.55219 7.61354 8.75725 7.75006 8.91667L13.8251 15L7.74173 21.075C7.65449 21.1497 7.58364 21.2416 7.53362 21.345C7.4836 21.4484 7.45549 21.561 7.45106 21.6758C7.44663 21.7906 7.46597 21.905 7.50786 22.0119C7.54976 22.1189 7.61331 22.216 7.69452 22.2972C7.77573 22.3784 7.87285 22.442 7.97979 22.4839C8.08673 22.5258 8.20117 22.5451 8.31594 22.5407C8.4307 22.5362 8.54331 22.5081 8.6467 22.4581C8.75009 22.4081 8.84202 22.3372 8.91673 22.25L15.0001 16.175L21.0751 22.25C21.2345 22.3865 21.4395 22.4579 21.6493 22.4498C21.859 22.4417 22.0579 22.3547 22.2064 22.2063C22.3548 22.0579 22.4417 21.8589 22.4498 21.6492C22.4579 21.4395 22.3866 21.2344 22.2501 21.075L16.1751 15Z" fill="white" fill-opacity="0.7"/>
</svg>
